<?xml version="1.0" encoding="UTF-8"?>
<svg width="373px" height="139px" viewBox="0 0 373 139" version="1.1" xmlns="http://www.w3.org/2000/svg" xmlns:xlink="http://www.w3.org/1999/xlink">
    <defs>
        <path d="M190.14,131.215 C194.46,131.215 197.988,129.703 199.86,127.543 C201.732,125.311 202.668,123.439 202.668,121.783 C202.668,120.415 201.876,119.119 200.508,118.111 C197.7,116.095 187.836,111.991 188.052,107.239 C188.412,98.959 204.18,88.375 206.844,90.319 C207.696923,90.9282308 206.436284,93.2901716 204.937721,95.6164238 L204.66305,96.0385873 C204.478746,96.3192367 204.292615,96.5977692 204.108,96.871 C201.732,100.039 200.796,102.775 200.796,104.359 C200.796,106.015 201.516,107.239 202.524,108.247 C203.892,109.687 204.684,109.111 205.332,107.959 C206.34,106.231 208.428,102.487 210.156,100.183 C211.236,98.599 213.036,95.719 212.316,92.767 C211.812,90.823 210.516,88.447 208.5,86.575 C207.276,85.567 205.836,85.063 204.108,85.063 C202.452,85.063 200.94,85.279 198.564,86.287 C192.084,89.023 180.852,97.591 180.852,107.383 C180.852,112.693277 186.084585,116.196618 190.942463,119.254017 L191.56015,119.642005 C193.199582,120.670741 194.767938,121.654508 196.044,122.647 C196.836,123.295 197.196,124.591 196.116,125.671 C195.324,126.463 193.884,126.823 192.3,126.823 C188.124,126.823 183.372,123.223 180.564,120.919 C179.052,119.695 177.036,119.119 174.948,119.119 C174.084,119.119 173.292,119.191 172.716,119.335 C171.708,119.695 171.204,120.487 172.212,121.711 C177.9,128.263 184.884,131.215 190.14,131.215 Z M210.948,130.999 C214.908,129.919 222.612,128.047 226.428,128.119 C227.94,128.119 228.156,127.543 227.796,126.535 C226.932,124.159 224.916,123.007 221.028,123.151 C218.724,123.295 214.188,124.087 211.236,124.879 C212.676,121.639 214.188,118.687 216.204,114.871 C220.092,113.863 225.132,112.999 228.66,112.999 C230.316,112.999 230.46,112.279 230.1,111.343 C229.308,109.039 227.436,107.743 223.476,107.887 C222.468,107.959 221.244,108.031 219.732,108.247 C223.116,102.127 226.428,96.151 228.804,92.551 C229.884,92.407 230.604,92.263 231.684,92.047 C235.068,91.399 238.956,90.679 242.556,90.679 C243.924,90.679 244.428,90.031 244.14,89.239 C243.204,86.719 241.404,85.423 238.092,85.495 C236.22,85.495 234.204,85.855 231.756,86.215 C228.3,86.791 224.484,87.223 220.524,87.223 C219.444,87.223 218.652,87.655 218.868,88.663 C219.228,90.031 220.092,91.183 221.748,92.263 C215.772,101.551 208.86,114.583 205.62,123.079 C204.9,125.095 204.756,126.031 205.332,126.967 C206.124,128.263 206.628,129.415 207.132,130.135 C208.068,131.503 209.22,131.503 210.948,130.999 Z M233.484,129.631 C235.14,126.679 236.724,123.079 238.668,119.695 C240.684,119.767 243.492,119.479 246.372,119.191 L251.412,118.687 C251.196,120.559 251.196,122.215 251.196,123.511 C251.268,127.687 252.636,129.559 254.22,130.351 C255.516,130.927 256.452,130.639 256.452,129.343 C256.596,125.815 256.956,122.143 257.388,118.543 L259.908,118.975 C261.204,119.191 261.708,118.903 261.348,117.751 C260.844,116.239 260.124,114.871 258.18,114.007 C259.548,106.447 261.564,98.959 263.22,93.775 C263.652,92.695 263.796,91.687 263.796,90.823 C263.796,89.959 263.58,89.167 263.22,88.303 C262.716,87.079 262.284,86.287 261.564,85.351 C260.484,83.911 259.404,83.839 257.82,85.135 C250.26,91.543 240.324,105.439 234.924,114.871 C233.916,114.799 233.34,114.727 232.332,114.583 C230.46,114.295 230.172,114.727 230.748,116.095 C230.964,116.527 231.612,117.535 232.908,118.471 C232.116,119.983 231.612,121.207 231.18,122.287 C230.316,124.375 230.028,126.031 230.028,127.183 C230.028,128.335 230.46,128.983 230.892,129.847 C231.396,130.855 232.62,131.143 233.484,129.631 Z M241.908,114.583 C246.444,107.527 251.628,100.615 256.236,95.071 C254.436,100.471 252.996,107.455 252.132,113.431 C250.188,113.503 248.604,113.791 246.156,114.079 C244.788,114.295 243.348,114.439 241.908,114.583 Z M284.172,130.207 C284.604,129.487 284.892,128.623 284.892,127.759 C284.892,126.607 284.532,125.239 283.884,124.015 C282.516,121.351 280.068,117.895 277.476,114.799 C285.324,112.783 292.74,108.391 296.412,103.423 C299.076,99.751 300.588,95.647 298.644,90.823 C296.844,86.287 293.316,84.703 289.5,84.847 C286.836,84.991 284.316,85.711 281.58,86.575 C278.988,87.439 276.252,88.231 273.372,88.663 C271.86,88.879 271.5,89.455 272.076,90.463 C272.94,91.975 273.948,92.983 276.324,93.415 C269.988,103.279 263.652,116.383 261.852,122.647 C261.492,123.943 261.348,125.239 261.348,126.247 C261.348,128.047 261.924,129.199 262.716,130.063 C263.796,131.143 264.588,130.999 265.092,129.631 C267.252,124.303 269.124,120.199 270.924,116.671 C273.804,119.911 277.26,124.519 281.724,130.423 C282.588,131.575 283.38,131.431 284.172,130.207 Z M274.596,109.759 C275.892,107.527 277.692,104.503 279.636,100.903 C281.436,97.519 282.3,94.999 282.372,92.983 L285.18,92.047 C287.484,91.255 290.22,90.319 291.876,90.319 C292.956,90.319 293.748,90.679 294.18,91.831 C296.052,96.583 288.996,106.087 274.596,109.759 Z M308.94,130.351 C312.036,130.351 315.276,129.487 318.228,127.399 C320.82,125.455 324.708,121.279 324.708,117.103 C324.708,116.383 324.564,115.519 324.204,114.727 C323.484,113.071 321.828,113.503 321.324,114.511 C317.148,122.503 312.036,127.111 308.076,127.111 C305.484,127.111 302.748,124.375 302.748,118.183 C302.748,113.863 304.116,107.959 307.284,102.847 C313.26,93.199 323.484,86.935 325.212,88.807 C326.076,89.743 325.212,92.047 324.204,94.567 C323.772,95.647 323.268,96.799 322.98,97.879 C322.692,98.815 322.548,99.679 322.548,100.543 C322.548,102.631 323.556,104.215 324.996,105.151 C326.436,106.015 327.444,105.295 327.804,104.071 C328.308,102.487 329.316,100.039 330.54,97.591 C331.26,96.151 331.548,94.711 331.548,93.415 C331.548,90.607 329.676,87.799 327.228,85.639 C326.004,84.631 324.348,84.127 322.548,84.127 C320.748,84.127 318.732,84.631 316.86,85.351 C308.724,89.023 295.836,102.055 296.124,116.599 C296.268,122.503 299.22,127.039 302.604,128.839 C304.404,129.847 306.564,130.351 308.94,130.351 Z M329.244,130.207 C331.332,125.599 333.42,120.991 335.508,116.671 C338.748,116.671 343.356,115.807 347.82,115.231 C346.668,117.607 345.732,119.983 345.228,121.351 C344.58,123.295 344.292,124.735 344.292,125.815 C344.292,127.399 344.868,128.479 345.516,129.487 C346.308,130.783 347.532,130.423 348.036,129.271 C350.412,124.015 352.788,119.119 355.092,114.583 C356.316,114.583 357.324,114.655 358.404,114.799 C359.772,115.015 360.276,114.439 360.06,113.503 C359.772,112.351 358.98,111.127 357.468,110.335 C359.052,107.455 360.636,104.647 365.172,96.583 C367.26,92.983 367.98,90.247 367.98,88.231 C367.98,87.151 367.692,86.287 367.332,85.495 C366.612,83.911 365.532,83.695 364.236,85.351 C362.051172,88.2458966 357.960271,95.2844316 354.100842,102.505858 L353.576192,103.49136 C352.530564,105.463143 351.509379,107.435138 350.556,109.327 C346.596,109.687 342.924,110.623 338.388,111.271 L346.092,97.231 C347.82,94.063 348.468,91.255 348.468,89.239 C348.468,88.015 348.252,87.079 347.82,86.287 C347.028,84.919 345.948,84.703 344.796,86.215 C342.658345,89.2687931 338.757738,96.1363175 335.077966,103.180633 L334.54127,104.212349 C333.204621,106.792681 331.910483,109.372931 330.756,111.775 C329.964,111.775 329.532,111.631 328.452,111.559 C326.508,111.415 326.076,111.919 326.796,113.287 C327.084,113.791 327.66,114.655 329.1,115.447 C326.076,122.575 325.356,124.735 325.356,126.823 C325.356,128.479 325.932,129.703 326.58,130.567 C327.444,131.791 328.74,131.431 329.244,130.207 Z" id="path-1"></path>
        <filter x="-3.6%" y="-10.6%" width="107.1%" height="129.7%" filterUnits="objectBoundingBox" id="filter-2">
            <feOffset dx="0" dy="2" in="SourceAlpha" result="shadowOffsetOuter1"></feOffset>
            <feGaussianBlur stdDeviation="2" in="shadowOffsetOuter1" result="shadowBlurOuter1"></feGaussianBlur>
            <feColorMatrix values="0 0 0 0 0.387407078   0 0 0 0 0.750018226   0 0 0 0 0.91627038  0 0 0 1 0" type="matrix" in="shadowBlurOuter1"></feColorMatrix>
        </filter>
    </defs>
    <g stroke="none" stroke-width="1" fill="none" fill-rule="evenodd">
        <g transform="translate(-539.000000, -210.000000)">
            <g transform="translate(539.908000, 210.297000)">
                <path d="M40.932,-5.68434189e-14 C55.1132766,-5.68434189e-14 62.3674061,2.53958352 65.2270317,3.94134406 L65.4437079,4.04957845 C65.997411,4.33154233 66.3592979,4.55878723 66.553,4.697 C66.969,4.995 67.093,5.436 67.093,5.802 L67.093,5.802 L63.717,20.099 C63.717,20.881 62.903,21.757 62.022,21.488 C59.219,20.62 54.816,18.821 44.593,18.821 C32.784,18.821 20.205,22.317 20.205,48.886 C20.205,75.45 32.285,78.609 40.932,78.609 C48.262,78.609 50.913,77.705 50.913,77.705 L50.913,77.705 L50.913,59.32 L39.106,59.32 C38.325,59.32 37.692,58.684 37.692,57.904 L37.692,57.904 L37.692,43.106 C37.692,42.324 38.325,41.691 39.106,41.691 L39.106,41.691 L69.373,41.691 C70.154,41.691 70.787,42.324 70.787,43.106 L70.787,43.106 L70.787,89.259 C70.787,89.524 70.742,90.102 70.328,90.331 C70.328,90.331 70.3177696,90.3382063 70.2974235,90.352159 L70.2432779,90.3889231 C69.2410619,91.063642 59.4033085,97.406 43.727,97.406 C23.73,97.406 2.77111667e-13,91.248 2.77111667e-13,49.922 C2.77111667e-13,8.596 20.727,-5.68434189e-14 40.932,-5.68434189e-14 Z M252.289,32.867 C253.066,32.867 253.696,33.506 253.696,34.292 L253.696,34.292 L253.696,72.425 C253.696,78.395 255.314,81.162 261.411,81.162 C266.688115,81.162 270.616479,78.8082371 271.578487,78.1745316 L271.689034,78.1005882 C271.766272,78.0480588 271.806,78.019 271.806,78.019 L271.806,78.019 L271.806,34.292 C271.806,33.506 272.438,32.867 273.213,32.867 L273.213,32.867 L290.124,32.867 C290.904,32.867 291.535,33.506 291.535,34.292 L291.535,34.292 L291.541,94.156 C291.541,94.939 290.906,95.579 290.132,95.579 L290.132,95.579 L279.213,95.628 C278.667,95.628 278.162,95.24 277.969,94.856 C277.775,94.471 277.347,91.223 277.347,91.223 C277.347,91.223 268.353,97.386 257.197,97.386 C243.6,97.386 233.716,93.047 233.716,75.312 L233.716,75.312 L233.716,34.292 C233.716,33.506 234.351,32.867 235.125,32.867 L235.125,32.867 Z M318.802,3.529 C319.578,3.529 320.208,4.164 320.208,4.951 L320.208,4.951 L320.208,35.149 C320.208,35.149 326.741,30.863 336.346,30.863 C345.958,30.863 360.184,34.455 360.184,61.944 C360.184,89.431 351.277,97.309 335.745,97.309 C322.516,97.309 315.528,90.687 315.528,90.687 C315.528,90.687 315.103,94.32 314.808,94.799 C314.509,95.281 314.105,95.556 313.571,95.556 L313.571,95.556 L301.713,95.556 C300.934,95.556 300.303,94.916 300.303,94.129 L300.303,94.129 L300.303,4.951 C300.303,4.164 300.934,3.529 301.711,3.529 L301.711,3.529 Z M135.422,14.877 C136.161,14.877 136.491,15.196 136.491,15.836 L136.491,15.836 L136.491992,16.7185754 C136.492062,16.7805854 136.492135,16.8454845 136.492211,16.9131497 L136.492976,17.593504 C136.49307,17.6766597 136.493166,17.7622127 136.493265,17.85004 L136.493887,18.4033125 C136.493995,18.4997454 136.494106,18.5982068 136.494219,18.6985736 L136.494921,19.3226564 C136.495284,19.645147 136.495664,19.9825737 136.496056,20.3316165 L136.496858,21.0442069 C136.497267,21.4072626 136.497686,21.7797213 136.498111,22.1582632 L136.498971,22.9224741 C136.499983,23.821221 136.501017,24.7410377 136.502029,25.6397498 L136.502889,26.4039224 C136.503314,26.7824408 136.503733,27.1548697 136.504142,27.5178892 L136.504944,28.2303986 C136.505336,28.5793967 136.505716,28.9167723 136.506079,29.2392054 L136.506781,29.8631647 C136.506894,29.9635095 136.507005,30.0619481 136.507113,30.1583575 L136.507735,30.7114809 C136.507834,30.799282 136.50793,30.884808 136.508024,30.967936 L136.508789,31.6480218 C136.508865,31.7156552 136.508938,31.7805216 136.509008,31.8424982 L136.509987,32.7121336 L136.509987,32.7121336 L136.51,32.724 L149.294,32.724 C150.073,32.724 150.704,33.358 150.704,34.145 L150.704,34.145 L150.704,47.882 C150.704,48.671 150.073,49.307 149.294,49.307 L149.294,49.307 L136.509,49.307 L136.509,49.307 L136.51,74.2461383 L136.51,74.2461383 L136.51,74.38 C136.51,78.159 138.637,81.079 144.917,81.079 C146.879,81.079 148.784,80.776 149.53,80.776 C150.278,80.776 150.943,81.413 150.943,82.2 L150.943,82.2 L150.928,94.264 C150.928,94.832 150.634,95.357 150.128,95.543 C149.291,95.852 144.221,97.213 139.982,97.213 C130.707,97.213 116.961,95.288 116.961,75.691 L116.961,75.691 L116.961,49.307 L108.029,49.307 C107.25,49.307 106.62,48.671 106.62,47.882 L106.62,47.882 L106.62,36.915 C106.62,36.268 107.053,35.726 107.64,35.556 C108.231,35.386 116.961,33.278 116.961,33.278 L116.961,33.278 L116.961,15.826 C116.961,15.175 117.324,14.877 118.002,14.877 L118.002,14.877 Z M177.532,3.529 C178.312,3.529 178.938,4.164 178.938,4.951 L178.938,4.951 L178.938,37.886 L205.503,37.886 C205.503,37.886 205.503,37.8827069 205.502999,37.8761866 L205.502044,31.5863436 C205.502023,31.4535627 205.502003,31.3193327 205.501982,31.1837195 L205.501022,24.8553463 C205.500997,24.6939111 205.500972,24.5320148 205.500948,24.3697231 L205.500052,18.4702337 C205.500028,18.3079372 205.500003,18.1460357 205.499978,17.9845949 L205.499018,11.6557513 C205.498997,11.5201213 205.498977,11.3858741 205.498956,11.2530756 L205.498,4.951 C205.498,4.164 206.131,3.529 206.909,3.529 L206.909,3.529 L223.951,3.529 C224.733,3.529 225.357,4.164 225.357,4.951 L225.357,4.951 L225.357,94.129 C225.355,94.916 224.731,95.556 223.95,95.556 L223.95,95.556 L206.868,95.556 C206.088,95.556 205.456,94.916 205.456,94.129 L205.456,94.129 L205.456854,93.4350852 C205.456923,93.3789163 205.456997,93.3195438 205.457074,93.257044 L205.457868,92.6121685 C205.457967,92.5315915 205.45807,92.448116 205.458176,92.3618184 L205.458855,91.8107766 C205.459215,91.5189329 205.459604,91.2030627 205.46002,90.8652255 L205.460888,90.160872 C205.46525,86.6208304 205.471983,81.1563958 205.478795,75.6279367 L205.480205,74.4838142 C205.487017,68.9553725 205.49375,63.4912076 205.498112,59.951688 L205.49898,59.2474461 C205.499396,58.9096665 205.499785,58.5938565 205.500145,58.3020759 L205.500824,57.7511637 C205.50093,57.6648883 205.501033,57.5814353 205.501132,57.5008811 L205.501926,56.8562189 C205.502003,56.7937437 205.502077,56.7343961 205.502146,56.6782524 L205.502986,55.996366 L205.502986,55.996366 L205.503,55.985 L178.938,55.985 L178.938,94.129 C178.938,94.916 178.312,95.556 177.532,95.556 L177.532,95.556 L160.491,95.556 C159.716,95.556 159.083,94.916 159.083,94.129 L159.083,94.129 L159.083,4.951 C159.083,4.164 159.716,3.529 160.491,3.529 L160.491,3.529 Z M98.904,32.732 C99.683,32.732 100.314,33.371 100.314,34.153 L100.314,34.153 L100.314,93.266 C100.314,94.718 99.902,95.543 98.222,95.543 L98.222,95.543 L82.916,95.543 C81.519,95.543 80.439,95.027 80.439,93.294 L80.439,93.294 L80.439,34.318 C80.439,33.536 81.136,32.732 81.915,32.732 L81.915,32.732 Z M340.53,63.013 C340.53,48.485 334.662,46.646 328.572,47.191 C323.756,47.621 319.831,50.027 319.831,50.027 L319.831,50.027 L319.831,78.268 C319.831,78.268 323.81,80.93 329.676,81.108 C337.882,81.356 340.53,78.332 340.53,63.013 Z M90.543,5.558 C96.613,5.558 101.532,10.517 101.532,16.654 C101.532,22.784 96.613,27.756 90.543,27.756 C84.479,27.756 79.555,22.784 79.555,16.654 C79.555,10.517 84.479,5.558 90.543,5.558 Z" id="Combined-Shape" fill="#11110F"></path>
                <g fill-rule="nonzero">
                    <use fill="black" fill-opacity="1" filter="url(#filter-2)" xlink:href="#path-1"></use>
                    <use fill="#E86EB6" xlink:href="#path-1"></use>
                </g>
            </g>
        </g>
    </g>
</svg>